<?xml version="1.0" encoding="UTF-8" standalone="no"?>
<!-- Created with Inkscape (http://www.inkscape.org/) -->

<svg
   width="15.288627mm"
   height="14.987922mm"
   viewBox="0 0 15.288627 14.987922"
   version="1.1"
   id="svg1"
   xml:space="preserve"
   inkscape:version="1.3.2 (091e20e, 2023-11-25, custom)"
   sodipodi:docname="phone.svg"
   xmlns:inkscape="http://www.inkscape.org/namespaces/inkscape"
   xmlns:sodipodi="http://sodipodi.sourceforge.net/DTD/sodipodi-0.dtd"
   xmlns="http://www.w3.org/2000/svg"
   xmlns:svg="http://www.w3.org/2000/svg"><sodipodi:namedview
     id="namedview1"
     pagecolor="#505050"
     bordercolor="#eeeeee"
     borderopacity="1"
     inkscape:showpageshadow="0"
     inkscape:pageopacity="0"
     inkscape:pagecheckerboard="0"
     inkscape:deskcolor="#505050"
     inkscape:document-units="mm"
     inkscape:zoom="0.35355339"
     inkscape:cx="-893.78297"
     inkscape:cy="-77.781746"
     inkscape:window-width="1920"
     inkscape:window-height="1001"
     inkscape:window-x="-9"
     inkscape:window-y="-9"
     inkscape:window-maximized="1"
     inkscape:current-layer="layer1" /><defs
     id="defs1" /><g
     inkscape:label="Layer 1"
     inkscape:groupmode="layer"
     id="layer1"
     transform="translate(-79.540406,-197.43766)"><g
       id="g1"><path
         id="rect1"
         style="fill:#08b400;fill-opacity:0.967512;stroke-width:0.268998"
         d="m 80.907441,197.81536 c 0.989251,-0.29635 10.456582,-0.74407 12.485596,0.15206 2.03178,0.89735 1.739404,12.49291 0.17137,13.61898 -1.539176,1.10535 -12.129135,1.20615 -13.195184,-0.22568 -1.255166,-1.68584 -1.091729,-13.05707 0.538218,-13.54536 z"
         sodipodi:nodetypes="sssss" /><path
         style="fill:#ffffff;fill-opacity:0.951083;stroke-width:0.264583"
         d="m 83.675807,200.7955 c 0.412905,-0.0798 0.825811,-0.15955 1.177919,0.0254 0.365084,0.63105 0.64806,1.37761 0.902102,2.16489 -0.226963,0.37225 -0.487171,0.71924 -0.839351,0.99631 0.916319,1.40745 1.946891,2.55394 3.346284,2.85803 0.504662,-0.63932 0.658296,-0.84898 0.855088,-1.11147 1.067292,0.20136 1.556836,0.61588 2.179037,0.98146 0.154553,0.66018 0.104918,1.25551 -0.620189,1.63628 -2.271714,1.12864 -6.114405,-0.78473 -7.69443,-4.78839 -0.462353,-1.10015 -0.07424,-1.99185 0.69354,-2.76251 z"
         id="path1"
         sodipodi:nodetypes="cccccccccc" /></g></g></svg>
